<svg width="28" height="28" viewBox="0 0 28 28" fill="none" xmlns="http://www.w3.org/2000/svg">
<path fill-rule="evenodd" clip-rule="evenodd" d="M10.2465 0.46692C9.28214 0.28137 7.81421 0.150491 6.71326 0.25652C9.41214 0.975526 11.9942 2.31248 13.9492 4.3585C17.8198 8.41078 17.754 13.8779 12.6607 16.2983C12.2312 16.5021 12.1456 16.7208 12.4928 17.0919C14.3639 19.2903 18.1884 20.064 21.6015 19.0087C23.9762 18.2731 26.8364 16.1111 27.3334 14.0071C27.3334 13.9276 27.3317 13.8481 27.3268 13.7685C27.205 11.6662 25.4112 9.60691 24.0075 8.16724C22.3174 6.43599 17.731 1.9099 10.2465 0.46692Z" fill="#8556AA"/>
<path d="M16.7172 20.6852C7.57886 19.943 9.95684 10.9124 9.95684 10.9124C11.7852 10.8362 14.512 12.0207 15.6739 12.5707C16.6234 10.0128 15.7479 6.9065 13.314 4.3585C11.3853 2.33899 8.84437 1.01198 6.18499 0.286343C0.152001 1.03186 0.226056 13.911 0.226056 13.911C0.216182 28.2746 6.53881 27.7875 7.39784 27.7775C16.7172 27.6682 27.3334 18.515 27.3317 14.0038C27.3317 14.0038 24.8204 21.3429 16.7172 20.6852Z" fill="#8556AA"/>
</svg>
